HIERARCHY
ROOT Hips
{
	OFFSET 47.359699 -10.730617 100.569000
	CHANNELS 6 Xposition Yposition Zposition Xrotation Yrotation Zrotation
	JOINT spine
	{
		OFFSET 0.000000 -0.507026 8.817047
		CHANNELS 3 Xrotation Yrotation Zrotation
		JOINT spine1
		{
			OFFSET 0.000000 -0.000002 10.776596
			CHANNELS 3 Xrotation Yrotation Zrotation
			JOINT spine2
			{
				OFFSET 0.000000 -0.000001 10.325897
				CHANNELS 3 Xrotation Yrotation Zrotation
				JOINT Neck
				{
					OFFSET 0.000000 -1.263955 26.511002
					CHANNELS 3 Xrotation Yrotation Zrotation
					JOINT Head
					{
						OFFSET 0.000000 -0.000001 8.009659
						CHANNELS 3 Xrotation Yrotation Zrotation
						End Site
						{
							OFFSET 0.000000 6.393857 19.387894
						}
					}
				}
				JOINT RightShoulder
				{
					OFFSET -4.347950 0.605420 11.151199
					CHANNELS 3 Xrotation Yrotation Zrotation
					JOINT RightArm
					{
						OFFSET 0.000000 -0.000003 14.625793
						CHANNELS 3 Xrotation Yrotation Zrotation
						JOINT RightArmRoll
						{
							OFFSET 0.000000 -0.000001 7.383392
							CHANNELS 3 Xrotation Yrotation Zrotation
							JOINT RightForeArm
							{
								OFFSET 0.000000 -0.000004 21.505203
								CHANNELS 3 Xrotation Yrotation Zrotation
								JOINT RightForeArmRoll
								{
									OFFSET 0.000000 -0.000001 8.285324
									CHANNELS 3 Xrotation Yrotation Zrotation
									JOINT RightHand
									{
										OFFSET 0.000000 -0.000003 16.626801
										CHANNELS 3 Xrotation Yrotation Zrotation
										End Site
										{
											OFFSET 0.000000 0.000000 0.100006
										}
									}
								}
							}
						}
					}
				}
				JOINT LeftShoulder
				{
					OFFSET 4.347950 0.605420 11.151199
					CHANNELS 3 Xrotation Yrotation Zrotation
					JOINT LeftArm
					{
						OFFSET 0.000000 -0.000003 14.625793
						CHANNELS 3 Xrotation Yrotation Zrotation
						JOINT LeftArmRoll
						{
							OFFSET 0.000000 -0.000001 7.383392
							CHANNELS 3 Xrotation Yrotation Zrotation
							JOINT LeftForeArm
							{
								OFFSET 0.000000 -0.000004 21.505203
								CHANNELS 3 Xrotation Yrotation Zrotation
								JOINT LeftForeArmRoll
								{
									OFFSET 0.000000 -0.000001 8.285324
									CHANNELS 3 Xrotation Yrotation Zrotation
									JOINT LeftHand
									{
										OFFSET 0.000000 -0.000003 16.626801
										CHANNELS 3 Xrotation Yrotation Zrotation
										End Site
										{
											OFFSET 0.000000 0.000000 0.100006
										}
									}
								}
							}
						}
					}
				}
			}
		}
	}
	JOINT RightUpLeg
	{
		OFFSET -7.815102 1.202170 -1.433090
		CHANNELS 3 Xrotation Yrotation Zrotation
		JOINT RightUpLegRoll
		{
			OFFSET 0.000000 -0.000003 19.495895
			CHANNELS 3 Xrotation Yrotation Zrotation
			JOINT RightLeg
			{
				OFFSET 0.000000 0.000004 -24.142700
				CHANNELS 3 Xrotation Yrotation Zrotation
				JOINT RightLegRoll
				{
					OFFSET 0.000000 -0.000004 24.221703
					CHANNELS 3 Xrotation Yrotation Zrotation
					JOINT RightFoot
					{
						OFFSET 0.000000 -0.000004 20.160500
						CHANNELS 3 Xrotation Yrotation Zrotation
						JOINT RightToeBase
						{
							OFFSET 0.000000 -0.000003 16.853195
							CHANNELS 3 Xrotation Yrotation Zrotation
							End Site
							{
								OFFSET 0.007145 0.940780 8.161865
							}
						}
					}
				}
			}
		}
	}
	JOINT LeftUpLeg
	{
		OFFSET 7.815102 1.202170 -1.433090
		CHANNELS 3 Xrotation Yrotation Zrotation
		JOINT LeftUpLegRoll
		{
			OFFSET 0.000000 -0.000003 19.496002
			CHANNELS 3 Xrotation Yrotation Zrotation
			JOINT LeftLeg
			{
				OFFSET 0.000000 -0.000004 24.142593
				CHANNELS 3 Xrotation Yrotation Zrotation
				JOINT LeftLegRoll
				{
					OFFSET 0.000000 -0.000005 24.445602
					CHANNELS 3 Xrotation Yrotation Zrotation
					JOINT LeftFoot
					{
						OFFSET 0.000000 -0.000003 19.936600
						CHANNELS 3 Xrotation Yrotation Zrotation
						JOINT LeftToeBase
						{
							OFFSET 0.000000 -0.000003 16.853195
							CHANNELS 3 Xrotation Yrotation Zrotation
							End Site
							{
								OFFSET -0.032013 0.940779 8.161865
							}
						}
					}
				}
			}
		}
	}
}
MOTION
Frames: 8
Frame Time: 0.041667
50.289097 -11.740112 100.620995 -1.732790 0.350095 -0.593033 -2.073741 -0.311484 -0.170485 -0.168542 -0.615856 -0.336610 1.476557 -0.619953 -0.329319 22.358419 3.711421 1.870691 -5.960438 2.099559 1.986287 -1.003116 -68.479005 -2.318172 -46.779764 -110.416196 -33.894643 0.000004 0.000002 0.000010 2.364603 -16.190729 0.284504 0.000007 0.000000 -2.999979 -5.000221 -7.998881 0.000165 -8.273549 64.305261 10.161673 -33.777024 112.038468 35.505844 -0.000001 0.000004 0.000002 16.958912 17.022327 -2.363829 -0.000008 -0.000002 2.999990 -5.000179 7.998933 -0.000167 0.412434 -178.583041 -0.324996 -179.999991 0.000005 -1.053005 175.181990 -2.080627 -0.390317 -0.000002 0.000002 0.039576 68.676746 6.884800 2.161736 25.463229 -7.355631 -0.004704 0.868242 177.258312 2.291076 -0.000005 -0.000004 -1.110670 -7.725180 2.107783 0.452279 -0.000005 0.000002 -0.133819 70.208177 -6.859516 -2.123062 25.898829 7.346131 -0.657869 
50.288296 -11.738318 100.621002 -1.728902 0.350684 -0.612835 -2.075452 -0.311724 -0.171022 -0.170317 -0.616352 -0.339286 1.474787 -0.620464 -0.331973 22.367865 3.700972 1.885234 -5.950562 2.136377 1.998196 -0.969314 -68.475297 -2.280093 -46.714068 -110.381089 -33.835552 0.000003 0.000002 0.000010 2.469270 -16.191442 0.296421 0.000005 -0.000000 -2.999981 -5.000221 -7.998883 0.000166 -8.274702 64.319379 10.163952 -33.832481 112.051391 35.509054 -0.000001 0.000003 0.000001 16.867149 17.001975 -2.345869 -0.000006 -0.000002 2.999990 -5.000183 7.998933 -0.000167 0.403247 -178.579025 -0.322836 -179.999991 0.000005 -1.053005 175.177154 -2.082613 -0.390661 -0.000002 0.000002 0.039576 68.675059 6.884797 2.161642 25.463225 -7.355631 -0.004705 0.869711 177.265320 2.301192 -0.000005 -0.000004 -1.110670 -7.723756 2.099357 0.452266 -0.000004 0.000002 -0.133783 70.211995 -6.859499 -2.123123 25.898431 7.346139 -0.657979 
50.287895 -11.744616 100.619987 -1.724994 0.351028 -0.632416 -2.077253 -0.311912 -0.171510 -0.172210 -0.616739 -0.341942 1.472897 -0.620867 -0.334605 22.377884 3.689584 1.899944 -5.940692 2.174868 2.010126 -0.934303 -68.470802 -2.240575 -46.646063 -110.348017 -33.771867 0.000001 0.000003 0.000012 2.570548 -16.190851 0.307859 0.000003 0.000000 -2.999979 -5.000222 -7.998881 0.000164 -8.275913 64.334003 10.166322 -33.888581 112.063330 35.513688 -0.000001 0.000004 0.000002 16.776396 16.982056 -2.328262 -0.000008 -0.000002 2.999990 -5.000178 7.998934 -0.000166 0.394152 -178.576034 -0.320520 -179.999991 0.000005 -1.053005 175.172359 -2.085580 -0.391087 -0.000002 0.000001 0.039576 68.673372 6.884794 2.161645 25.463229 -7.355630 -0.004704 0.871437 177.273312 2.311801 -0.000005 -0.000004 -1.110670 -7.721782 2.090606 0.452249 -0.000004 0.000002 -0.133729 70.215513 -6.859542 -2.123115 25.898025 7.346138 -0.658064 
50.286400 -11.747614 100.622002 -1.721063 0.351202 -0.651843 -2.079112 -0.312062 -0.171963 -0.174183 -0.617051 -0.344581 1.470917 -0.621193 -0.337224 22.388194 3.677560 1.914778 -5.930827 2.214525 2.022065 -0.898450 -68.465693 -2.200073 -46.579496 -110.315533 -33.708309 0.000004 0.000003 0.000011 2.669438 -16.189237 0.318946 0.000003 0.000001 -2.999979 -5.000225 -7.998882 0.000164 -8.277135 64.349043 10.168730 -33.944169 112.075201 35.518278 -0.000001 0.000003 0.000001 16.686460 16.962677 -2.311026 -0.000009 -0.000002 2.999991 -5.000177 7.998934 -0.000167 0.385124 -178.572031 -0.318085 -179.999991 0.000005 -1.053005 175.167592 -2.087566 -0.391430 -0.000002 0.000001 0.039576 68.671692 6.884791 2.161648 25.463229 -7.355630 -0.004704 0.873343 177.282314 2.322767 -0.000005 -0.000004 -1.110670 -7.719405 2.081621 0.452228 -0.000004 0.000002 -0.133662 70.218818 -6.859614 -2.123022 25.897723 7.346129 -0.658173 
50.279995 -11.749617 100.618996 -1.717123 0.351275 -0.671182 -2.081009 -0.312192 -0.172397 -0.176204 -0.617319 -0.347212 1.468896 -0.621477 -0.339832 22.398794 3.665171 1.929676 -5.920960 2.254849 2.033998 -0.862131 -68.460386 -2.159009 -46.509418 -110.284653 -33.640246 0.000004 0.000003 0.000011 2.766965 -16.187197 0.329836 0.000005 0.000000 -2.999981 -5.000224 -7.998885 0.000165 -8.278366 64.364172 10.171150 -34.000627 112.086143 35.524145 -0.000001 0.000004 0.000001 16.596878 16.943507 -2.293944 -0.000006 -0.000003 2.999989 -5.000183 7.998934 -0.000166 0.376133 -178.568029 -0.315583 -179.999991 0.000005 -1.053005 175.162824 -2.090533 -0.391855 -0.000002 0.000002 0.039576 68.669998 6.884789 2.161754 25.463230 -7.355631 -0.004704 0.875354 177.290319 2.333904 -0.000005 -0.000004 -1.110670 -7.716809 2.072506 0.452206 -0.000004 0.000002 -0.133588 70.222029 -6.859649 -2.123131 25.897320 7.346137 -0.658263 
50.303898 -11.725720 100.618996 -1.713192 0.351322 -0.690499 -2.082922 -0.312316 -0.172826 -0.178236 -0.617577 -0.349839 1.466866 -0.621748 -0.342439 22.409388 3.652689 1.944607 -5.911104 2.295353 2.045926 -0.825699 -68.454874 -2.117822 -46.441496 -110.253262 -33.574143 0.000003 0.000003 0.000012 2.864156 -16.184917 0.340668 0.000003 -0.000000 -2.999979 -5.000222 -7.998883 0.000166 -8.279573 64.379300 10.173549 -34.056826 112.097051 35.529804 -0.000000 0.000003 0.000002 16.507522 16.924244 -2.276977 -0.000006 -0.000003 2.999990 -5.000183 7.998934 -0.000167 0.367146 -178.564040 -0.313068 -179.999991 0.000005 -1.053005 175.158084 -2.093513 -0.392282 -0.000002 0.000002 0.039576 68.668325 6.884820 2.161665 25.463227 -7.355631 -0.004704 0.877384 177.299321 2.345116 -0.000005 -0.000004 -1.110670 -7.714152 2.063353 0.452184 -0.000004 0.000002 -0.133512 70.225321 -6.859688 -2.123033 25.896910 7.346133 -0.658347 
50.310497 -11.733419 100.625992 -1.709251 0.351416 -0.709859 -2.084800 -0.312450 -0.173265 -0.180245 -0.617856 -0.352473 1.464856 -0.622041 -0.345050 22.419889 3.640398 1.959512 -5.901239 2.335522 2.057835 -0.789538 -68.449649 -2.076940 -46.372774 -110.221686 -33.507761 0.000004 0.000003 0.000012 2.962016 -16.182987 0.351590 0.000004 0.000000 -2.999979 -5.000220 -7.998882 0.000164 -8.280807 64.394436 10.175985 -34.113397 112.108095 35.535685 -0.000001 0.000003 0.000001 16.417987 16.905048 -2.260050 -0.000007 -0.000002 2.999990 -5.000183 7.998931 -0.000167 0.358144 -178.560024 -0.310587 -179.999991 0.000005 -1.053005 175.153330 -2.095485 -0.392624 -0.000002 0.000001 0.039576 68.666637 6.884817 2.161670 25.463230 -7.355631 -0.004704 0.879368 177.307312 2.356205 -0.000005 -0.000004 -1.110670 -7.711615 2.054268 0.452164 -0.000003 0.000002 -0.133440 70.228531 -6.859756 -2.123047 25.896509 7.346131 -0.658433 
50.302097 -11.745514 100.623993 -1.705333 0.351627 -0.729330 -2.086651 -0.312612 -0.173728 -0.182195 -0.618189 -0.355116 1.462906 -0.622389 -0.347672 22.430107 3.628586 1.974325 -5.891377 2.374864 2.069706 -0.753994 -68.444704 -2.036797 -46.303037 -110.189844 -33.441211 0.000004 0.000002 0.000010 3.061580 -16.181686 0.362755 0.000003 0.000001 -2.999979 -5.000223 -7.998882 0.000164 -8.282001 64.409271 10.178338 -34.168520 112.119987 35.539674 -0.000000 0.000003 0.000001 16.327810 16.885353 -2.242940 -0.000007 -0.000003 2.999989 -5.000182 7.998934 -0.000166 0.349096 -178.556021 -0.308189 -179.999991 0.000005 -1.053005 175.148535 -2.098465 -0.393053 -0.000002 0.000001 0.039576 68.664950 6.884813 2.161672 25.463229 -7.355630 -0.004704 0.881221 177.316314 2.367076 -0.000005 -0.000004 -1.110670 -7.709351 2.045351 0.452147 -0.000004 0.000002 -0.133377 70.231939 -6.859796 -2.123045 25.896106 7.346130 -0.658518 
